<?xml version="1.0" encoding="utf-8"?>
<!-- Generator: Adobe Illustrator 18.0.0, SVG Export Plug-In . SVG Version: 6.00 Build 0)  -->
<svg version="1.2" baseProfile="tiny" id="Layer_1" xmlns="http://www.w3.org/2000/svg" xmlns:xlink="http://www.w3.org/1999/xlink"
	 x="0px" y="0px" viewBox="80 20 340 330" xml:space="preserve">
<g>
	<path d="M266.6,52.8c0.2,0.1,0.4,0.2,0.6,0.2c1.6,0.4,3.2,0.8,4.7,1.2c0.4,0.1,0.7,0.1,1-0.2c0.1-0.1,0.3-0.3,0.5-0.4
		c0.1-0.1,0.3-0.3,0.4-0.2c0.8,0,1.6-0.2,2.3,0.4c0.3,0.2,0.5,0.3,0.9,0.3c0.4-0.1,0.7,0,1,0.4c0.1,0.1,0.3,0.2,0.5,0.2
		c0.8,0.1,0.9,0.2,1,0.9c0,0.2,0.1,0.4,0.1,0.6c7.5,1.9,14.9,3.7,22.5,5.6c0.1-0.4,0.2-0.7,0.3-1.1c0.1-0.5,0.2-1,0.3-1.5
		c0.1-0.5,0.2-0.6,0.6-0.5c1.3,0.2,2.5,0.5,3.8,0.7c0.4,0.1,0.5,0.3,0.4,0.6c-0.2,0.8-0.3,1.5-0.5,2.3c-0.1,0.3-0.1,0.6,0.1,0.9
		c0.1,0.2,0.1,0.5,0.1,0.7c0,0.3-0.1,0.6-0.2,0.9c0,0.2,0,0.4-0.2,0.5c-0.8,0.7-1.1,1.7-1.9,2.5c-0.7,0.7-1.4,1.6-2,2.4
		c0,0,0,0-0.1,0c-0.1-0.2-0.2-0.4-0.2-0.6c-0.3-1-0.6-1.9-0.9-2.9c-0.2-0.7-0.3-1.4-0.5-2.2c-0.1,0-0.4-0.1-0.7-0.2
		c-6.6-1.7-13.3-3.3-19.9-5c-0.4-0.1-0.7-0.1-1.1-0.1c-0.4,0.1-0.9,0-1.3,0c-0.1,0-0.3-0.1-0.4-0.1c-1.1-0.1-2.1,0-3,0.8
		c-1.8,1.4-3.7,2.6-5.5,4c-1.1,0.8-2.2,1.8-3.2,2.7c-0.6,0.5-1,1.2-1.4,1.9c-0.6,0.9-0.4,1.4,0.6,1.8c0.8,0.3,1.5,0.6,2.3,0.9
		c0.2,0.1,0.5,0,0.7,0.1c1.2,0.4,2.3,0.9,2.9,2.1c0.1,0.1,0.1,0.2,0.2,0.3c0.8,0.6,1.6,1.3,2.6,1.8c-0.1-0.2-0.3-0.4-0.4-0.6
		c-1.3-1.7-2.3-3.6-2.7-5.7c-0.2-1.1-0.2-2.2,0.3-3.2c1-2.4,2.7-4.2,5.1-5.3c2.2-1,4.5-0.7,6.2,1.2c0.6,0.7,1.2,1.4,1.8,2.1
		c0.9,1.1,1.3,2.5,1.4,3.9c0.1,2,0.5,4.1,1.1,6c0.1,0.2,0.1,0.4,0.2,0.6c0.6,1.8,1.9,2.8,3.8,3.1c1.4,0.2,2.9,0.4,4.3,0.6
		c1.6,0.2,3.2,0.6,4.7,1.3c1.4,0.7,2.4,1.7,3.4,2.9c1.2,1.7,2.5,3.4,4.2,4.8c1.3,1.2,2.7,2.3,4.1,3.4c0.2,0.2,0.5,0.3,0.8,0.4
		c0.5,0.2,1,0.4,1.4,0.6c0.8,0.6,1.6,1.2,2.3,1.9c0.3,0.3,0.5,0.6,0.7,0.9c-0.5,0.8-1.1,1.5-1.8,2c-0.8,0.6-1.6,1.2-2.4,1.7
		c-0.2,0.1-0.4,0.3-0.5,0.5c1.1-0.3,2-0.9,2.9-1.6c0.9-0.7,1.7-1.4,2.5-2.2c0.4,0.4,0.3,1,0.4,1.6c0.1,0.8,0.2,1.5,0.3,2.3
		c0.3,1.4,0.1,2.7-0.2,4c-0.6,3-1.6,5.8-2.6,8.7c-0.2,0.7-0.4,1.3-0.7,2c-0.5,1.4-0.5,2.9,0.1,4.4c3.9-0.1,7.9-0.1,12-0.2
		c0,0.8,0,1.6,0,2.5c-0.2,0-0.4,0.1-0.6,0.1c-3.7,0.1-7.4,0.1-11.1,0.1c-0.4,0-0.7,0.1-0.9,0.5c-0.2,0.5-0.6,0.7-1.2,0.8
		c-0.3,0-0.4,0.1-0.5,0.3c-0.4,0.8-1,1.1-1.9,0.7c-1,1.1-1.1,1.1-2.3,0.2c-0.3,0.1-0.5,0.2-0.8,0.2c-0.7,0.1-1.2-0.2-1.3-0.9
		c-0.1-0.5-0.2-0.9-0.6-1.2c-0.4-0.5-0.9-0.6-1.5-0.6c-2.9,0.1-5.7,0.1-8.6,0.2c-0.2,0-0.4,0-0.6,0.1c0,0.3,0,0.6,0.1,0.9
		c0.3,2.3,0.3,4.7,0,7c-0.2,1.4-0.3,2.9-0.5,4.3c-0.1,1.2,0.2,2.3,0.4,3.5c0.8,3.2,2.1,6.3,3.6,9.3c1.4,3,3,5.8,4.8,8.6
		c2.7,4.2,5,8.7,7.1,13.3c1.9,4,3.7,7.9,5.5,11.9c0.5,1.1,1.1,2.2,1.6,3.3c0.4,0.7,0.9,1.3,1.3,2c0.4,0.6,0.8,1.2,0.9,1.9
		c0,0.3,0.1,0.6,0.3,0.8c0.8,1.6,1.3,3.2,1.8,4.9c0.2,0.8,0,1.2-0.8,1.4c-1.2,0.4-2.4,0.3-3.5,0.2c-2.3-0.2-4.6-0.5-6.8-1
		c-0.7-0.1-0.9-0.3-0.8-1c0.1-0.7,0.3-1.5,0.5-2.2c0.2-0.6,0.4-1.2,0.5-1.8c0-0.6,0.1-1.2,0.1-1.7c0.1-1.1-0.3-2.2-1-3
		c-0.8-1-1.7-1.9-2.6-2.9c-1.5-1.6-3.1-3.2-4.6-4.8c-1.8-1.9-3.3-4-4.8-6.2c-1.6-2.2-3.3-4.4-5.2-6.4c-0.6-0.6-1.2-1.1-1.8-1.6
		c-0.3-0.2-0.5-0.5-0.6-0.9c-0.8-2.6-1.5-5.3-1.9-8.1c-0.3-2.6-0.3-5.3,0.1-7.9c0.1-0.4,0.2-0.8,0.3-1.2c0,0-0.1,0-0.1,0
		c-0.1,0.3-0.3,0.6-0.4,0.8c-0.6,1.6-0.9,3.2-1.1,4.9c-0.5,4.3-0.1,8.6,0.6,12.9c0.4,2.5,1,4.9,1.6,7.3c0.3,1.3,0,1.6-1.3,1.4
		c-1.1-0.1-2.1-0.3-3.2-0.5c-2.7-0.4-5.4-0.8-8.2-1.1c-3.4-0.4-6.8-0.6-10.2-0.9c-3.4-0.3-6.8-0.7-10.2-1.2c-3-0.5-5.6-1.8-8.1-3.3
		c-0.8-0.5-1.5-1-2.3-1.5c0.1,0.1,0.1,0.3,0.2,0.4c1,1.5,2,2.8,3.3,4.1c0.2,0.3,0.4,0.5,0.4,0.9c-0.3,3.3-0.2,6.5-0.2,9.8
		c0,0.1,0,0.2,0,0.3c-1.5,0-3,0-4.5,0c0-0.2-0.1-0.3-0.1-0.5c-0.1,0-0.2,0-0.2,0c-0.9,0.6-2,0.6-3,0.6c-3.2,0-6.4,0-9.6,0
		c-0.3,0-0.5,0-0.8,0c-0.3-0.9-0.2-1.7,0-2.5c0.1-0.3,0.4-0.6,0.6-0.7c0.5-0.3,1.1-0.6,1.7-0.8c1.9-0.6,3.7-1.1,5.6-1.6
		c0.4-0.1,0.8-0.2,1.2-0.3c0.4-0.1,0.7-0.4,0.7-0.8c0.1-0.7,0.1-1.3,0.1-2c0.1-2.8,0.1-5.6,0.2-8.5c0.2-4.6,0.5-9.2,1.2-13.8
		c0.3-2,0.6-4.1,1.3-6c0.1-0.3,0.2-0.6,0.4-1c0.4-1.1,1.1-1.7,2.2-2.2c4.5-1.8,8.9-4.1,13.2-6.4c1.8-0.9,3.1-2.3,4.1-4
		c0.5-0.9,1-1.9,1.5-2.9c0.3-0.6,0.7-1.1,1.2-1.5c0.5-0.3,0.8-0.8,1-1.5c-10.6,0.2-21,0.3-31.5,0.5c-10.5,0.2-20.9,0.3-31.5,0.5
		c0-0.8,0-1.6,0-2.5c0.2,0,0.4,0,0.7,0c3.8-0.1,7.7-0.1,11.5-0.2c3,0,5.9-0.1,8.9-0.1c6.9-0.1,13.8-0.2,20.6-0.3
		c6.4-0.1,12.9-0.2,19.3-0.3c0.8,0,1.6-0.1,2.5-0.1c0-0.5,0.1-1,0.1-1.5c0.1-0.8,0.1-1.7,0.3-2.4c0.7-2.7,0.7-5.4,0.5-8.1
		c-0.3-3.1-0.8-6.1-0.8-9.2c0-2.7,0.2-5.4,1.2-8c0.7-1.8,1.7-3.4,2.7-5c0.2-0.3,0.4-0.6,0.6-1c-1.4,1.1-2.5,2.4-3.8,3.8
		c-1-0.8-2-1.6-3-2.4c-0.3-0.3-0.6-0.6-1.1-0.6c-0.2,0-0.5-0.2-0.6-0.3c-0.7-0.6-1.4-1.3-2-2c-0.2-0.2-0.3-0.4-0.4-0.6
		c-0.1-0.6-0.5-1-0.8-1.5c-2-2.6-4.1-5.2-6.1-7.8c-0.6-0.8-1.2-1.7-1.8-2.6c-0.2-0.4-0.4-0.8-0.6-1.3c-0.2-0.7,0-1.1,0.7-1.4
		c0.3-0.1,0.6-0.3,0.8-0.4c3.5-2.3,7.4-4.1,11.3-5.6c1.8-0.7,3.3-1.7,4.7-3c0.1-0.1,0.3-0.3,0.4-0.4c0,0,0.1-0.1,0.1-0.3
		c-0.2-0.1-0.4-0.2-0.6-0.2c-1.2-0.3-2.4-0.6-3.6-0.9c-0.9-0.2-1-0.4-0.9-1.3c0-0.2,0.1-0.4,0.1-0.6c0-0.5,0.3-0.9,0.8-1.1
		C266.5,52.8,266.6,52.8,266.6,52.8z M297.3,97.3c-0.3,0.5-0.5,1-0.8,1.5c-1.2,2.3-2.3,4.6-3.1,7.1c-0.5,1.6-0.8,3.2-0.6,4.9
		c0.1,1,0.3,2.1,0.5,3.1c0.1,0.6,0.2,1.2,0.4,1.8c-2.4,0.4-4.6,0.8-6.9,1.2c-0.1-0.1-0.1-0.2-0.1-0.3c0-0.2,0-0.4-0.1-0.6
		c-0.1-2.5-0.2-5.1-0.1-7.6c0.2-2.4,0.3-4.8,0.5-7.2c0.4-4.1,1-8.2,1.8-12.3c0.1-0.3,0.1-0.7,0.1-1c-0.1,0-0.1,0-0.2,0
		c-0.5,2.4-1.1,4.8-1.6,7.2c-0.5,2.4-0.9,4.9-1.3,7.3c-0.4,2.4-0.7,4.9-0.8,7.4c-0.2,2.5-0.2,4.9-0.3,7.4c-1.7,0.3-3.4,0.6-5.1,0.9
		c0,0.1,0,0.1,0,0.2c8.5-0.1,16.9-0.3,25.4-0.4c0.6-1.6,1.7-2.6,3.1-3.3c0.5-0.3,0.8-0.7,1-1.3c0.1-0.3,0.1-0.6,0.1-0.9
		c0.1-0.8,0.2-1.6,0.3-2.4c0.2-1.2,0.2-2.3-0.4-3.3c-0.8-1.5-1.7-3-2.1-4.7c-1.2-0.4-2.2-1.1-3.1-2c-0.2-0.1-0.3-0.3-0.4-0.5
		c-0.2-0.2-0.4-0.5-0.6-0.6c-2.9-1.9-5.8-3.7-8.7-5.6c-0.2-0.1-0.4-0.2-0.5-0.3c0,0-0.1,0.1-0.1,0.1C294.7,94.6,296,95.9,297.3,97.3
		z M271.9,113.7c0,0,0.1,0,0.1,0c0-0.1,0-0.2,0-0.3c-0.3-3.1-0.6-6.2-0.8-9.4c-0.2-3.4-0.4-6.7-0.6-10.1c0-0.2,0-0.3-0.1-0.5
		c-0.1,0-0.1,0-0.2,0C269.6,100.3,270.3,107.1,271.9,113.7z"/>
	<path fill="#FF0000" d="M396.1,189c-0.1,0.2-0.1,0.4-0.2,0.5c-0.1,1.5-0.7,2.8-1.6,3.9c-1.1,1.5-2.7,2.3-4.5,2.5
		c-0.7,0.1-1.4,0.1-2.1,0.1c-11.3,0-22.5,0-33.8,0c-2.1,0-4.1,0.4-6,1.2c-1.9,0.8-3.5,2.1-4.7,3.9c-0.1,0.1-0.1,0.2-0.2,0.3
		c-6.5,0-12.9,0-19.4,0c0-0.1,0-0.2,0.1-0.2c3.9-4.4,7.3-9.1,10.5-14c1.6-2.5,3.2-4.9,4.9-7.3c0.7-0.9,1.4-1.8,2.2-2.6
		c1.6-1.6,3.6-2.6,5.8-2.8c1.3-0.1,2.7-0.3,4-0.3c13.7,0,27.4,0,41.1,0c0.5,0,0.9,0,1.4-0.1c1.2-0.2,2.1-0.9,2.4-2.2
		C396.1,177.7,396.1,183.3,396.1,189z"/>
	<path fill="#FF0000" d="M263,207.3c0.2,0,0.4,0,0.6,0c4.9,0,9.8,0,14.7,0c1.4,0,2.8,0.3,4.1,0.9c2.4,1.1,3.7,3.1,4,5.8
		c0.1,0.6,0.1,1.2,0.1,1.7c0,9.6,0,19.2,0,28.8c0,2.3,0.5,4.5,1.5,6.6c0.8,1.5,1.9,2.8,3.3,3.8c0.6,0.4,0.7,0.4,1.3,0
		c2.2-1.5,3.6-3.6,4.3-6.1c0.4-1.4,0.6-2.8,0.6-4.2c0-11.2,0-22.4,0-33.5c0-0.3,0-0.6,0-0.9c-0.2-1.2-0.6-2.1-1.9-2.7
		c8.6,0,17,0,25.6,0c-1.5,0.8-1.9,2.1-1.9,3.6c0,11.2,0,22.4,0,33.5c0,2.3,0.5,4.5,1.6,6.6c0.8,1.5,1.9,2.8,3.3,3.8
		c0.6,0.4,0.6,0.4,1.3,0c2.1-1.4,3.4-3.4,4.2-5.8c0.5-1.5,0.7-3.1,0.7-4.7c0-9.8,0-19.6,0-29.4c0-1.1,0.1-2.1,0.5-3.1
		c0.8-2.1,2.3-3.4,4.4-4.1c0.9-0.3,1.9-0.5,2.9-0.5c5.2,0,10.4,0,15.6,0c0,0,0.1,0,0.1,0c0,0,0,0.1,0,0.1c-1.2,0.6-1.6,1.7-1.7,2.9
		c0,0.3,0,0.5,0,0.8c0,11.8,0,23.7,0,35.5c0,1.6,0,3.3-0.3,4.9c-0.4,2-1.2,3.8-2.6,5.2c-1,1-2,1.9-3.1,2.7c-2.5,1.8-5.1,3.5-7.7,5.2
		c-4.7,3.1-9.2,6.3-13.4,10.1c0,0-0.1,0.1-0.1,0.1c-0.1,0-0.2-0.1-0.2-0.1c-4.6-4.1-9.6-7.6-14.7-10.9c-0.3-0.2-0.7-0.4-1-0.6
		c-0.4-0.3-0.7-0.3-1.1,0c-2.5,1.7-5,3.4-7.5,5.1c-2.8,2-5.5,4.1-8.1,6.4c-0.1,0.1-0.2,0.1-0.2,0.2c-0.1,0-0.2-0.1-0.2-0.1
		c-4.7-4.2-9.9-7.8-15.2-11.3c-1.2-0.8-0.8-0.8-1.9,0c-4.6,2.9-9,6-13.2,9.5c-0.7,0.6-1.5,1.3-2.2,1.9c-2-1.6-3.9-3.2-5.9-4.7
		c-2-1.5-4.1-3-6.1-4.5c-0.4,0.3-0.8,0.5-1.2,0.8c-2.6,1.7-5.3,3.4-7.8,5.2c-6,4.2-11.8,8.7-17.5,13.3c-2.6,2.1-5.2,4.2-7.8,6.3
		c-0.2,0.1-0.3,0.3-0.6,0.4c0-0.2-0.1-0.4-0.1-0.5c0-6.1,0-12.3,0-18.4c0-0.4,0.1-0.6,0.4-0.9c4.8-3.8,9.6-7.6,14.5-11.3
		c2.4-1.9,3.8-4.4,4.4-7.3c0.3-1.2,0.3-2.5,0.3-3.8c0-12.9,0-25.7,0-38.6c0-0.3,0-0.6,0-0.9c-0.2-1.1-0.6-2-1.7-2.6
		c0.2,0,0.4,0,0.5,0c5,0,10,0,15,0c1.5,0,3,0.3,4.3,1.1c2.2,1.2,3.3,3,3.6,5.4c0.1,0.5,0.1,1.1,0.1,1.6c0,9.6,0,19.3,0,28.9
		c0,2.1,0.4,4.2,1.2,6.2c0.8,1.8,1.9,3.2,3.5,4.4c0.8,0.5,0.8,0.5,1.6,0c2.3-1.6,3.6-3.9,4.3-6.7c0.3-1.2,0.4-2.4,0.4-3.7
		c0-11.2,0-22.3,0-33.5c0-0.3,0-0.6,0-0.9c-0.2-1.1-0.6-2-1.7-2.6C263,207.4,263,207.4,263,207.3z"/>
	<path fill="#FF0000" d="M127.8,266.5c0.7-0.5,1.4-1,2-1.6c4.3-3.4,8.5-6.7,12.9-10.1c2.6-2,3.9-4.6,4.5-7.7c0.2-1,0.3-2.1,0.3-3.2
		c0-9.6,0-19.3,0-28.9c0-0.9,0.1-1.8,0.3-2.7c0.8-2.5,2.6-4,5.1-4.7c0.8-0.2,1.6-0.3,2.4-0.3c5.1,0,10.1,0,15.2,0c0.1,0,0.3,0,0.4,0
		c0,0.1,0,0.1-0.1,0.2c-1.1,0.6-1.5,1.6-1.6,2.8c0,0.3,0,0.6,0,0.9c0,12.1,0,24.3,0,36.4c0,1.5-0.1,3-0.4,4.5
		c-0.4,1.9-1.3,3.5-2.6,4.9c-1.2,1.3-2.6,2.3-4.1,3.3c-2.5,1.7-5,3.3-7.4,4.9c-6.1,4.2-12,8.8-17.8,13.5c-2.8,2.3-5.7,4.6-8.5,6.9
		c-0.2,0.1-0.3,0.3-0.6,0.4c-0.2-0.2-0.5-0.4-0.7-0.5c-6.2-5.1-12.4-10.1-18.8-14.9c-4.1-3.1-8.4-6.1-12.7-8.9
		c-1.9-1.2-3.8-2.6-5.6-4.1c-2.3-2-3.4-4.6-3.5-7.6c-0.1-1.6-0.1-3.3-0.1-5c0-9.8,0-19.6,0-29.5c0-1,0.1-2,0.3-3
		c0.7-2.7,2.5-4.2,5.1-4.9c0.8-0.2,1.7-0.4,2.6-0.4c11.2,0,22.5,0,33.7,0c1.5,0,3,0.3,4.3,1c2.2,1.2,3.4,3.1,3.6,5.5
		c0,0.5,0.1,0.9,0.1,1.4c0,4.5,0,9.1,0,13.6c0,0.3,0,0.6,0,1c-0.2,0-0.4,0-0.6,0c-4.2,0-8.5,0-12.7,0c-1.3,0-2.6-0.3-3.8-0.7
		c-1.8-0.7-3.1-1.9-3.8-3.8c-0.6-1.4-0.8-2.8-0.8-4.3c0-1.6,0-3.2,0-4.8c0-1.5-0.9-2.7-2.2-3.1c-1.9-0.5-3.8,0.8-3.9,2.7
		c0,0.2,0,0.4,0,0.7c0,9.3,0,18.6,0,27.9c0,2.7,0.6,5.1,2.1,7.4c0.6,0.9,1.3,1.7,2.2,2.4c4.9,3.8,9.8,7.7,14.7,11.5
		C127.3,266.1,127.5,266.3,127.8,266.5z"/>
	<path fill="#FF0000" d="M177.8,291c0-0.4,0-0.7,0-0.9c0-6,0-11.9,0-17.9c0-0.5,0.2-0.9,0.6-1.2c5.2-4.1,10.4-8.1,15.5-12.2
		c0.1-0.1,0.2-0.2,0.4-0.4c-0.2-0.2-0.4-0.3-0.6-0.5c-2.9-1.9-5.8-3.8-8.6-5.7c-1.5-1-2.9-2-4.3-3.1c-0.8-0.6-1.6-1.3-2.3-2.1
		c-1.5-1.6-2.3-3.5-2.5-5.6c-0.1-1.1-0.2-2.2-0.2-3.3c0-7.7,0-15.4,0-23c0-1,0.1-2,0.4-2.9c0.8-2.4,2.6-3.8,5-4.5
		c0.8-0.2,1.7-0.3,2.6-0.3c11.2,0,22.5,0,33.7,0c1.5,0,3,0.3,4.3,1.1c2.1,1.1,3.3,3,3.6,5.3c0.1,0.7,0.1,1.4,0.1,2.1
		c0,10.4,0,20.8,0,31.2c0,1.3-0.1,2.7-0.2,4c-0.2,2.3-1.2,4.3-2.8,5.9c-1,0.9-2,1.8-3.1,2.6c-1.2,0.9-2.4,1.7-3.6,2.5
		c-5.1,3.2-9.9,6.8-14.7,10.5c-7.6,5.8-15.1,11.8-22.5,17.9C178.3,290.6,178.1,290.7,177.8,291z M203.5,246.3c0-0.7,0.1-1.2,0.1-1.7
		c0-6.4,0-12.9,0-19.3c0-1.3,0-2.6,0-3.9c0-1.5-1.2-2.8-2.6-3c-1.6-0.2-3,0.7-3.4,2.3c-0.1,0.4-0.1,0.8-0.1,1.2c0,4.3,0,8.7,0,13
		c0,1.3,0.2,2.5,0.5,3.8C198.7,241.9,200.6,244.4,203.5,246.3z"/>
	<path d="M186.4,144.5c0,0.2,0,0.3,0,0.5c0,0.3,0.1,0.6,0.2,0.9c0.5,0,1-0.1,1.4-0.3c2.2-0.7,4-2,5.6-3.6c0.4-0.4,0.8-0.6,1.3-0.5
		c0.3,0,0.7,0,1.1,0c-0.1-0.3-0.1-0.6-0.2-0.9c-0.5-1.2-1.3-2-2.3-2.7c-0.2-0.1-0.5-0.2-0.8-0.2c-1.1,0-2.2,0-3.4,0
		c-0.5,0-0.8,0-0.9-0.6c-6.2,0-11.7-2.1-16.7-5.6c-1.6-1.1-3.1-2.4-4.4-4.1c1-0.2,1.8-0.1,2.6-0.1c0.8,0,1.7,0,2.5,0s1.7,0,2.5,0
		s1.7,0,2.5,0c0.8,0,1.7,0,2.5,0s1.7,0,2.5,0s1.7,0,2.5,0c2.1,0,2.1,0,2.4,0.4c-2.3,0.6-4.6,0.9-7,1c-2.3,0.2-4.7,0.1-7,0
		c4.7,0.9,9.4,0.8,14.1,0.1c0.3,2,0.6,3.9,0.9,5.8c0,0,0.1,0,0.1,0c0-0.1,0.1-0.3,0.1-0.4c0-2.2,0.1-4.4,0.1-6.6
		c0-0.3,0-0.5,0.1-0.8c1,0,1.9,0,2.8,0c0.4,1.2,0.8,2.4,1.1,3.7c0.1,0,0.1,0,0.2,0c0-0.7,0-1.5,0-2.3c7.2-0.4,14.3-0.9,21.5-1.3
		c-7.1-0.2-14.2-0.1-21.4-0.2c0-0.5,0-0.8,0-1.3c0.3,0,0.5-0.1,0.8-0.1c12.1,0,24.2,0,36.3,0c0.2,0,0.4,0,0.6,0
		c0.2,0.5,0.3,4.2,0.1,5.2c-0.3,0-0.5,0-0.8,0c-3.8,0.2-7.4,0.7-11,2c-1.9,0.7-3.6,1.6-5.2,2.8c-1.2,0.9-2.3,2-3,3.4
		c-0.4,0.8-0.7,1.7-0.7,2.7c0.4,0,0.8,0,1.2,0c0.4,0,0.7,0.1,1,0.4c1.6,1.5,3.5,2.7,5.6,3.5c0.7,0.3,1.5,0.5,2.4,0.7
		c0.1-0.6,0.1-1,0.2-1.5c-2.9-0.2-5.5-1.3-7.7-3c5,0,10,0,15,0c0.1,0.5,0.2,35.3,0,36.2c-0.2,0-0.5,0-0.7,0c-7,0-14,0.1-20.9-0.1
		c-6.1-0.1-12.1-1.2-17.8-3.6c-8.8-3.8-14.7-10.3-17.9-19.3c-1.4-4-2.2-8.2-2.2-12.4c0-0.3,0-0.5,0-0.8c8.4,0,16.8,0,25.3,0
		c-0.7,0.6-1.4,1.1-2.1,1.4c-0.8,0.4-1.6,0.8-2.4,1.1C188.1,144.2,187.3,144.3,186.4,144.5z M212.4,144.9c0,0,0.1-0.1,0.1-0.1
		c-0.6-1.1-1.5-2.1-2.5-3.1c-0.1,0.6-0.1,1,0.3,1.3c0.6,0.5,1.1,1,1.6,1.6C212.1,144.6,212.3,144.8,212.4,144.9z M194.1,144.6
		c0.1,0,0.1,0.1,0.2,0.1c0.5-0.4,1-0.9,1.4-1.3c0.3-0.3,0.4-0.6,0.2-1.1C195.3,143.1,194.7,143.9,194.1,144.6z"/>
	<path fill="#FF0000" d="M385.3,255.3c0,6.5,0,12.9,0,19.4c-0.2-0.1-0.3-0.1-0.4-0.2c-4.7-4.2-9.9-7.7-15.1-11.2c-2-1.3-4-2.7-6-4.1
		c-0.8-0.6-1.6-1.3-2.4-2c-2-1.9-3-4.3-3.2-7c-0.1-1.3-0.1-2.5-0.1-3.8c0-13.5,0-27,0-40.5c0-0.4,0-0.8-0.1-1.2
		c-0.2-1.1-0.7-2-1.9-2.6c0.3,0,0.5,0,0.8,0c5,0,9.9,0,14.9,0c1.5,0,2.9,0.3,4.2,1c2.1,1.1,3.4,2.8,3.7,5.2c0.1,0.6,0.1,1.3,0.1,1.9
		c0,11.2,0,22.4,0,33.5c0,1.6,0.1,3.2,0.5,4.7C381.2,251.4,382.7,253.7,385.3,255.3z"/>
	<path d="M235.3,202c-0.8,0-1.6,0-2.4,0c0-0.3,0-0.6,0-0.8c0-2.6,0-5.2,0-7.8c0-0.5-0.2-0.9-0.5-1.3c-1.7-1.6-3.3-3.3-5-4.9
		c-0.8-0.8-1.6-0.7-2.2,0.2c-0.1,0.1-0.2,0.4-0.2,0.5c0,0.3,0,0.5,0,0.8c0,4.1,0,8.2,0,12.3c0,0.3,0,0.6,0,1
		c-0.8,0.1-1.5,0.1-2.3,0.1c0-0.3-0.1-0.5-0.1-0.8c0-4.6,0-9.2,0-13.9c0-0.4,0.1-0.8,0.4-1.1c0.6-0.5,1.1-1.1,1.7-1.7
		c0.2-0.2,0.5-0.4,0.8-0.3c0,0,0.1,0,0.1,0c1.9,0,1.9,0,3.2,1.3c1.5,1.5,3.1,3.1,4.6,4.6c0.2,0.2,0.3,0.3,0.5,0.5
		c0.2-0.2,0.4-0.3,0.6-0.5c1.8-1.8,3.6-3.5,5.3-5.3c0.4-0.4,0.8-0.5,1.3-0.6c1.3-0.1,2.2,0.3,3.1,1.3c0.9,0.9,1.2,1.7,1.2,3
		c-0.1,4.2,0,8.4,0,12.5c0,0.3,0,0.6,0,1c-0.8,0-1.5,0-2.3,0c0-0.3-0.1-0.7-0.1-1c0-4.2,0-8.5,0-12.7c0-0.5,0-0.9-0.4-1.3
		c-0.6-0.6-1.3-0.6-1.9,0c-1.7,1.7-3.4,3.4-5.1,5c-0.4,0.3-0.5,0.7-0.5,1.2c0,2.6,0,5.2,0,7.8C235.3,201.4,235.3,201.7,235.3,202z"
		/>
	<path d="M266.1,199.7c0,0.8,0,1.5,0,2.3c-0.3,0-0.5,0.1-0.7,0.1c-4.6,0-9.3,0-13.9,0c-0.4,0-0.7-0.1-1-0.4
		c-0.5-0.6-1.1-1.1-1.7-1.7c-0.3-0.3-0.4-0.5-0.4-0.9c0-1.4,0-2.7,0-4.1c0-0.4,0.1-0.7,0.4-1c0.3-0.3,0.5-0.6,0.8-0.9
		c-0.3-0.3-0.6-0.7-0.9-1c-0.2-0.2-0.3-0.4-0.3-0.7c0-1.5,0-2.9,0-4.4c0-0.2,0.1-0.5,0.3-0.6c0.6-0.7,1.2-1.3,1.9-1.9
		c0.2-0.2,0.5-0.2,0.7-0.3c0.1,0,0.3,0,0.4,0c4.5,0,8.9,0,13.4,0c1.1,0,1.1,0,1.1,1.1c0,1.4,0.1,1.3-1.3,1.3c-4.1,0-8.3,0-12.4,0
		c-0.4,0-0.8,0-1.2,0.3c-0.4,0.3-0.6,0.7-0.5,1.2c0,0.8,0,1.6,0,2.4c0,0.9,0.5,1.4,1.4,1.4c4.3,0,8.7,0,13,0c0.3,0,0.6,0,0.9,0
		c0.2,0.8,0.1,1.6,0.1,2.4c-0.4,0-0.7,0-1,0c-4.3,0-8.5,0-12.8,0c-0.4,0-0.8,0-1.1,0.4c-0.3,0.3-0.5,0.6-0.5,1.1c0,0.8,0,1.6,0,2.3
		c0,1,0.5,1.5,1.5,1.5c3.5,0,6.9,0,10.4,0c0.9,0,1.8,0,2.7,0C265.6,199.7,265.8,199.7,266.1,199.7z"/>
	<path d="M137.8,194.6c2.4,2.4,4.9,4.9,7.3,7.3c0,0.1,0,0.1,0,0.2c-0.4,0-0.9,0-1.3,0c-1.2,0.2-2-0.3-2.8-1.1c-1.9-2.1-4-4-6-6.1
		c-0.4-0.4-0.8-0.5-1.3-0.5c-0.9,0-1.9,0-2.8,0c-0.2,0-0.5,0-0.8,0c0,0.3-0.1,0.6-0.1,0.9c0,1.9,0,3.8,0,5.8c0,0.3,0,0.6-0.1,0.9
		c-0.8,0-1.5,0-2.3,0c0-0.3-0.1-0.5-0.1-0.8c0-5.3,0-10.7,0-16c0-0.1,0-0.3,0-0.4c0-0.3,0.2-0.5,0.4-0.5c0.2,0,0.4,0,0.6,0
		c4.5,0,9,0,13.5,0c0.6,0,1,0.2,1.4,0.6c0.5,0.5,1,1,1.5,1.5c0.3,0.2,0.3,0.5,0.3,0.8c0,1.4,0,2.8,0,4.2c0,0.4-0.1,0.6-0.4,0.9
		c-0.6,0.5-1.1,1.1-1.6,1.7c-0.3,0.3-0.6,0.4-1,0.4c-1.2,0-2.4,0-3.6,0c-0.3,0-0.5,0-0.8,0C137.9,194.5,137.8,194.5,137.8,194.6z
		 M130.1,186.7c-0.2,0.9-0.1,4.6,0,5.2c0.1,0,0.3,0,0.4,0c3.7,0,7.4,0,11.2,0c0.7,0,1.3-0.6,1.3-1.3c0-0.9,0-1.8,0-2.7
		c0-0.3-0.1-0.6-0.3-0.8c-0.3-0.3-0.7-0.5-1.2-0.5c-3.6,0-7.1,0-10.7,0C130.5,186.6,130.3,186.7,130.1,186.7z"/>
	<path d="M124.8,184.3c0,0.8,0,1.5,0,2.3c-0.3,0-0.6,0.1-0.9,0.1c-4.3,0-8.5,0-12.8,0c-0.4,0-0.8,0-1.1,0.3
		c-0.4,0.4-0.6,0.7-0.6,1.3c0,0.8,0,1.6,0,2.4c0,0.8,0.6,1.3,1.4,1.3c3.6,0,7.2,0,10.8,0c0.5,0,0.9,0.1,1.2,0.5
		c0.5,0.6,1.1,1.1,1.7,1.7c0.2,0.2,0.3,0.5,0.3,0.8c0,1.4,0,2.9,0,4.3c0,0.2-0.1,0.5-0.3,0.7c-0.6,0.7-1.3,1.3-1.9,1.9
		c-0.3,0.3-0.6,0.3-0.9,0.3c-2.6,0-5.1,0-7.7,0c-2,0-4,0-6.1,0c-0.3,0-0.5,0-0.8,0c-0.2-0.8-0.1-1.6,0-2.4c0.3,0,0.6,0,0.9,0
		c4.3,0,8.6,0,12.8,0c0.6,0,1-0.1,1.3-0.6c0.1-0.2,0.2-0.4,0.3-0.6c0-0.9,0-1.9,0-2.8c0-0.6-0.6-1.2-1.1-1.2c-0.2,0-0.4,0-0.7,0
		c-3.5,0-6.9,0-10.4,0c-0.5,0-0.9-0.1-1.3-0.5c-0.5-0.6-1-1.1-1.6-1.6c-0.3-0.3-0.4-0.5-0.4-0.9c0-1.4,0-2.7,0-4.1
		c0-0.4,0.1-0.6,0.4-0.9c0.5-0.5,1.1-1,1.6-1.6c0.4-0.4,0.8-0.5,1.3-0.5c1.7,0,3.3,0,5,0c2.8,0,5.7,0,8.5,0
		C124,184.3,124.4,184.3,124.8,184.3z"/>
	<path d="M165.9,193.2c0,1.9,0,3.8,0,5.8c0,0.5-0.1,0.8-0.5,1.1c-0.6,0.5-1.1,1.1-1.7,1.6c-0.3,0.3-0.5,0.4-0.9,0.4
		c-3.9,0-7.9,0-11.8,0c-0.4,0-0.6-0.1-0.9-0.4c-0.5-0.5-1-1.1-1.6-1.6c-0.4-0.3-0.5-0.7-0.5-1.2c0-3.2,0-6.4,0-9.6c0-0.7,0-1.4,0-2
		c0-0.4,0.1-0.6,0.4-0.9c0.6-0.6,1.2-1.2,1.8-1.8c0.3-0.3,0.5-0.4,0.9-0.4c3.9,0,7.9,0,11.8,0c0.4,0,0.6,0.1,0.9,0.4
		c0.6,0.6,1.1,1.2,1.7,1.7c0.3,0.3,0.4,0.6,0.4,1C165.9,189.3,165.9,191.2,165.9,193.2z M163.5,193.1c0-1.7,0-3.4,0-5
		c0-0.9-0.5-1.4-1.4-1.5c-3.4,0-6.8,0-10.1,0c-0.9,0-1.4,0.6-1.4,1.5c0,2.8,0,5.7,0,8.5c0,0.5,0,1.1,0,1.6c0,0.8,0.6,1.4,1.4,1.4
		c3.4,0,6.8,0,10.2,0c0.8,0,1.4-0.6,1.4-1.4C163.5,196.5,163.5,194.8,163.5,193.1z"/>
	<path d="M177.6,202.1c-1.9,0-3.9,0-5.8,0c-0.4,0-0.7-0.1-1-0.4c-0.5-0.6-1.1-1.2-1.7-1.7c-0.3-0.3-0.4-0.5-0.4-0.9
		c0-3.9,0-7.8,0-11.7c0-0.4,0.1-0.7,0.4-1c0.5-0.5,1.1-1,1.6-1.6c0.3-0.4,0.7-0.5,1.2-0.5c3.4,0,6.8,0,10.1,0c0.5,0,1,0,1.5,0
		c0.4,0,0.6,0.1,0.9,0.4c0.6,0.6,1.2,1.2,1.8,1.8c0.2,0.2,0.4,0.5,0.4,0.8c0,4,0,8,0,12c0,0.3-0.1,0.6-0.3,0.8
		c-0.6,0.6-1.2,1.1-1.8,1.7c-0.3,0.3-0.6,0.4-1,0.4C181.5,202.1,179.6,202.1,177.6,202.1z M184.1,193.1c0-1.7,0-3.4,0-5
		c0-0.9-0.5-1.4-1.4-1.4c-3.4,0-6.9,0-10.3,0c-0.8,0-1.4,0.6-1.4,1.4c0,3.4,0,6.8,0,10.2c0,0.8,0.6,1.4,1.4,1.4c3.4,0,6.8,0,10.1,0
		c0.9,0,1.5-0.5,1.5-1.5C184.1,196.5,184.1,194.8,184.1,193.1z"/>
	<path d="M299.7,202c-0.9,0-1.6,0-2.4,0c0-0.3-0.1-0.6-0.1-0.8c0-1.1,0-2.2,0-3.4c0-0.3,0-0.6-0.1-0.9c-0.3,0-0.5,0-0.8,0
		c-3.5,0-7.1,0-10.6,0c-1,0-1.5,0.5-1.5,1.5c0,1.2,0,2.3,0,3.6c-0.8,0-1.5,0-2.3,0c0-0.2-0.1-0.4-0.1-0.5c0-1.3,0-2.6,0-3.9
		c0-0.4,0.1-0.6,0.4-0.9c4-4,8-8,12-12c0.3-0.3,0.6-0.4,1-0.4c1.9,0,1.9,0,3.3,1.3c0.9,0.8,1.2,1.7,1.2,2.9c-0.1,4.2,0,8.4,0,12.6
		C299.7,201.4,299.7,201.7,299.7,202z M287.6,194.4c0.9,0.2,8.9,0.1,9.5,0c0-0.1,0.1-0.2,0.1-0.3c0-2.1,0-4.1,0-6.2
		c0-0.2-0.1-0.4-0.2-0.6c-0.6-0.8-1.6-0.8-2.2-0.1c-2.2,2.3-4.4,4.5-6.7,6.7C288,194,287.8,194.2,287.6,194.4z"/>
	<path d="M101.8,196.9c-0.4,0-0.7,0-0.9,0c-3.5,0-7,0-10.5,0c-1.1,0-1.6,0.5-1.6,1.6c0,0.9,0,1.7,0,2.6c0,0.3,0,0.5,0,0.8
		c-0.8,0-1.5,0-2.3,0c0-0.2-0.1-0.4-0.1-0.6c0-1.3,0-2.5,0-3.8c0-0.4,0.1-0.7,0.4-1c4-4,8-8,12-12c0.3-0.3,0.6-0.4,1-0.4
		c2,0,1.9,0,3.4,1.3c0.9,0.8,1.2,1.7,1.2,2.8c-0.1,4.2,0,8.4,0,12.6c0,0.3,0,0.6,0,1c-0.8,0-1.6,0-2.4,0
		C101.8,200.4,101.8,198.7,101.8,196.9z M101.7,194.5c0-0.2,0.1-0.3,0.1-0.4c0-2.1,0-4.2,0-6.3c0-0.4-0.5-1-0.9-1.1
		c-0.5-0.1-1-0.1-1.4,0.3c-2.3,2.3-4.6,4.6-6.9,6.9c-0.1,0.1-0.2,0.3-0.4,0.5C95.5,194.5,98.6,194.5,101.7,194.5z"/>
	<path d="M204.7,194.3c0-3.3,0-6.6,0-9.9c0.8-0.2,1.5-0.1,2.3-0.1c0.2,0.6,0.2,16.7,0.1,17.7c-0.7,0-1.5,0-2.3,0
		c0-0.2-0.1-0.4-0.1-0.6c0-1,0-2,0-3.1c0-0.4-0.1-0.6-0.4-0.9c-3.5-3.5-6.9-6.9-10.3-10.4c-0.4-0.4-0.9-0.5-1.4-0.3
		c-0.5,0.2-0.9,0.6-0.9,1.2c0,0.2,0,0.5,0,0.7c0,4.1,0,8.2,0,12.3c0,0.3,0,0.6,0,1c-0.8,0-1.5,0-2.3,0c0-0.2-0.1-0.5-0.1-0.7
		c0-4.6,0-9.2,0-13.9c0-0.4,0.1-0.8,0.4-1.1c0.6-0.5,1.1-1.1,1.7-1.7c0.2-0.2,0.5-0.4,0.8-0.4c0,0,0,0,0.1,0
		c1.9-0.1,1.9-0.1,3.3,1.3c2.8,2.8,5.5,5.5,8.3,8.3c0.2,0.2,0.4,0.3,0.6,0.5C204.5,194.3,204.6,194.3,204.7,194.3z"/>
	<path d="M276.6,186.7c-2.5-0.1-5,0-7.6-0.1c0-0.8,0-1.5,0-2.3c0.3,0,0.5-0.1,0.8-0.1c5.4,0,10.7,0,16.1,0c0.1,0,0.3,0,0.4,0
		c0.3,0,0.4,0.2,0.4,0.4c0,0.5,0,1,0,1.5c0,0.3-0.2,0.4-0.4,0.4c-0.2,0-0.4,0-0.7,0c-1.9,0-3.7,0-5.6,0c-0.3,0-0.6,0-1,0.1
		c0,2.6,0,5.2,0,7.7c0,2.5,0,5,0,7.6c-0.8,0-1.6,0-2.4,0c0-0.3-0.1-0.6-0.1-0.9c0-4.4,0-8.9,0-13.3
		C276.7,187.4,276.6,187.1,276.6,186.7z"/>
	<path d="M304.8,199.6c4.3,0,8.5,0,12.8,0c0,0.8,0,1.6,0,2.3c-0.6,0.1-14.1,0.2-15.1,0.1c-0.2-0.5-0.2-16.5-0.1-17.7
		c0.7-0.2,1.5-0.1,2.3,0c0,2.6,0,5.1,0,7.6C304.8,194.5,304.8,197,304.8,199.6z"/>
</g>
<g>
	<path fill="#9D9C9C" d="M382.2,301.1h-5.8v24.5h5.8V301.1z M387.2,293.9c-8.8,0-13.9,0.3-15.4,0.8c-1.5,0.5-3,2.5-4.6,5.8l5.4,1.9
		c0.7-1.5,1.4-2.3,2-2.5c0.6-0.2,2.7-0.3,6.5-0.3h6.1V293.9z M372.5,311.8h-5.8v7.2c0,0.5-0.2,0.8-0.5,1c-0.3,0.2-0.6,0.3-1,0.3
		c-0.6-0.1-1-0.2-1.5-0.5c-0.5-0.4-0.7-0.8-0.7-1.4v-6.6h-5.8v7.2c0,0.9-0.5,1.3-1.5,1.3c-0.6-0.1-1-0.2-1.5-0.5
		c-0.5-0.4-0.7-0.8-0.7-1.4v-6.6h-5.8v6.3c0,0.7-0.1,1.1-0.4,1.3c-0.2,0.2-0.3,0.3-0.5,0.3c-0.2,0-0.4,0.1-0.7,0.1h-5.5v5.8h5.8
		l2.2-0.5c0.9-0.3,1.8-0.8,2.6-1.6c0.9,0.9,1.7,1.5,2.5,1.9c0.4,0.2,0.8,0.4,1.3,0.5c0.4,0.1,0.8,0.2,1.3,0.2c1.7,0,3.2-0.7,4.6-2.1
		c1.5,1.4,3.2,2.2,5.1,2.2c1.8,0,3.3-0.7,4.5-2s1.8-3.2,1.8-5.6V311.8z M332.8,319.7c-0.5-0.1-1-0.2-1.2-0.4
		c-0.5-0.5-0.8-1.2-0.8-2.1c0-1,0.1-1.8,0.4-2.3c0.4-0.4,0.9-0.6,1.4-0.6c0.6,0.1,1.1,0.3,1.5,0.5c0.4,0.3,0.6,1,0.6,2v2.9
		C334,319.9,333.4,319.8,332.8,319.7 M343.1,319.9h-2.5c0-4.3-0.7-7.3-2.2-8.9c-1.5-1.6-3.4-2.4-5.8-2.4c-2.3,0-4.1,0.6-5.5,1.7
		c-1.4,1.1-2.1,3.6-2.1,7.3c0,3.1,0.9,5.3,2.7,6.4c1.8,1.1,4.1,1.7,6.9,1.7c-0.1,0.5-0.4,1-0.7,1.4c-0.3,0.4-0.7,0.8-1.1,1.2
		c-0.9,0.7-2.1,1.1-3.5,1.1h-5.9l0.9,5.8h5.7c2.9,0,5.4-1,7.4-3c2.1-2,3.1-4.2,3.1-6.6c0.4,0.1,1.1,0.2,2.1,0.2h0.6V319.9z
		 M321.6,318.5l-0.3-1.3c-0.3-0.6-0.5-1-0.7-1.3c-0.3-0.4-0.6-0.8-0.9-1.1l-1.2-1.3l-7.9-8.3l-3.9,4l9.1,9.6l0.1,0.4
		c0,0.4-0.4,0.7-0.9,0.7h-13.1l0.9,5.8h12.5c2,0,3.6-0.6,4.8-1.8c1.2-1.2,1.8-2.5,1.8-4.1C321.8,319.3,321.7,318.9,321.6,318.5
		 M294,319.7c-0.4,0.4-1,0.7-1.7,0.7c-0.3,0-0.6-0.1-0.8-0.2c-0.3-0.1-0.5-0.3-0.8-0.5c-0.3-0.3-0.5-0.6-0.6-0.8
		c-0.1-0.3-0.2-0.5-0.2-0.8c0-0.7,0.2-1.2,0.5-1.7c0.3-0.4,0.9-1.1,1.7-1.9l1.9,2c0.3,0.3,0.5,0.5,0.6,0.8c0.1,0.3,0.2,0.5,0.2,0.8
		C294.6,318.8,294.4,319.3,294,319.7 M298.6,313.2l-7.7-8.1l-4,4l1.1,1.2c-0.6,0.6-1.2,1.2-1.7,1.8c-0.5,0.6-0.9,1.2-1.2,1.8
		c-0.2,0.3-0.4,0.7-0.6,0.9c-0.1,0.3-0.2,0.6-0.3,0.9c-0.1,0.5-0.2,1.2-0.2,2.1c0,2.2,0.8,4.1,2.4,5.7c1.6,1.6,3.5,2.4,5.7,2.4
		c2.3,0,4.2-0.8,5.9-2.4c1.6-1.6,2.4-3.5,2.4-5.6C300.6,316.2,299.9,314.6,298.6,313.2 M275.8,301.1H270v24.5h5.8V301.1z
		 M262.1,311.8v13c0,1.1-0.5,2.1-1.6,3c-1.1,0.9-2.5,1.3-4.2,1.3h-5.4l0.9,5.9h5.9c2.8,0,5.2-1.1,7.3-3.4c2-2.3,3.1-4.9,3.1-7.8
		l0-12.1H262.1z M266.9,301.5c-0.2-0.4-0.5-0.7-0.8-1c-0.4-0.3-0.8-0.5-1.2-0.6c-0.4-0.1-1-0.2-1.5-0.2c-1.1,0-2,0.3-2.7,0.9
		c-0.7,0.6-1.1,1.4-1.1,2.4c0,0.5,0.1,1,0.3,1.5c0.2,0.4,0.4,0.8,0.8,1.2c0.4,0.4,0.8,0.6,1.2,0.7c0.4,0.1,0.9,0.2,1.5,0.2
		c1.1,0,2-0.4,2.7-1.1c0.7-0.7,1.1-1.6,1.1-2.6C267.1,302.4,267,301.9,266.9,301.5 M247.3,301.1h-5.8v24.5h5.8V301.1z M252.3,293.9
		c-8.8,0-13.9,0.3-15.4,0.8c-1.5,0.5-3,2.5-4.6,5.8l5.4,1.9c0.7-1.5,1.4-2.3,2-2.5c0.6-0.2,2.7-0.3,6.5-0.3h6.1V293.9z M223.1,317.5
		c-0.3,0.4-0.7,0.7-1.2,0.9c-0.5-0.2-1-0.4-1.3-0.6c-0.3-0.2-0.6-0.4-0.8-0.5c-0.5-0.6-0.7-1.1-0.7-1.7c0.1-0.6,0.3-1,0.5-1.3
		c0.4-0.3,0.9-0.5,1.5-0.5c0.8,0,1.3,0.3,1.8,0.8c0.5,0.5,0.7,1,0.7,1.6C223.6,316.7,223.4,317.1,223.1,317.5 M231.5,320.8l-0.7,0.7
		c-0.3,0.2-0.7,0.3-1.2,0.3c-0.7,0-1.5-0.3-2.5-0.8c0.6-0.8,1-1.6,1.3-2.2c0.2-0.4,0.3-0.9,0.4-1.3c0.1-0.4,0.1-0.9,0.1-1.5
		l-0.1-1.4c1,0.9,1.8,1.8,2.3,2.7c0.3,0.4,0.5,0.8,0.7,1.2c0.1,0.4,0.2,0.7,0.2,1C231.9,320.1,231.8,320.5,231.5,320.8 M235.3,314
		c-0.9-1.3-2-2.6-3.2-3.9c-1.3-1.4-2.9-3-4.8-4.9l-4,3.8c-0.7-0.2-1.3-0.3-2-0.3c-1.9,0-3.7,0.7-5.1,2.1c-1.5,1.4-2.2,3-2.2,4.9
		c0,0.3,0.1,0.6,0.1,1c0.1,0.4,0.1,0.7,0.2,1.1l0.5,1.3l0.5,0.9h-4.1v5.8c4,0,6.4-0.1,7.3-0.2c0.5-0.1,1.1-0.2,1.6-0.4
		c0.5-0.2,1-0.4,1.5-0.6c1.7,1,3.3,1.7,4.6,2.1c1.4,0.4,2.7,0.6,3.9,0.6c2,0,3.4-0.4,4.4-1.3c0.5-0.4,0.9-0.9,1.2-1.3
		c0.3-0.4,0.6-0.9,0.8-1.3c0.2-0.3,0.4-0.6,0.5-0.9c0.1-0.3,0.2-0.6,0.3-0.9c0.1-0.3,0.2-0.6,0.2-0.9c0-0.3,0-0.5,0-0.8
		C237.6,318.2,236.8,316.3,235.3,314 M213.4,319.9c-1.4,0-2.2-0.1-2.7-0.3c-0.4-0.3-0.6-0.8-0.6-1.3v-6.5h-5.8v13
		c0,1.3-0.5,2.3-1.5,3.2c-1,0.9-2.1,1.3-3.4,1.3h-4.8c-1.5,0-2.6-0.5-3.6-1.4c-0.9-0.9-1.4-1.9-1.4-3.1v-9.3h-5.8v8.8
		c0,2.9,1,5.4,2.9,7.5c1.9,2.1,4.3,3.2,7.1,3.2h5.7c2.7,0,5.1-0.9,7.2-2.7c2.1-1.8,3.2-4.2,3.2-7.3c0.5,0.3,0.8,0.5,1.1,0.5
		c0.2,0.1,0.4,0.1,0.8,0.1h0.3h1.2V319.9z M198.8,309.5c-0.7-0.6-1.6-0.9-2.7-0.9c-0.6,0-1.1,0.1-1.6,0.2c-0.5,0.2-0.9,0.4-1.2,0.7
		c-0.7,0.6-1,1.4-1,2.4c0,0.6,0.1,1.1,0.2,1.5c0.2,0.4,0.4,0.8,0.7,1.1c0.8,0.6,1.7,0.9,2.8,0.9c0.5,0,1-0.1,1.5-0.3
		c0.5-0.2,0.9-0.4,1.2-0.7c0.7-0.7,1.1-1.6,1.1-2.6C199.8,310.9,199.5,310,198.8,309.5 M170.3,319.4c-0.5-0.5-0.8-1.2-0.8-2.1
		c0-1.1,0.1-1.9,0.4-2.3c0.4-0.4,0.9-0.6,1.4-0.6c0.7,0,1.2,0.2,1.4,0.7c0.2,0.3,0.3,0.5,0.4,0.8c0.1,0.3,0.1,0.6,0.1,1v2.9
		C172,319.9,171,319.7,170.3,319.4 M179.1,320.4c0-3.6-0.5-6.5-1.5-8.6c-1-2.1-3.1-3.2-6.3-3.2c-2.3,0-4.1,0.6-5.5,1.7
		c-1.4,1.1-2.1,3.6-2.1,7.3c0,3.1,0.9,5.3,2.7,6.4c1.8,1.1,4.1,1.7,6.9,1.7c-0.1,0.5-0.4,1-0.7,1.4s-0.7,0.8-1.1,1.2
		c-0.9,0.7-2.1,1.1-3.5,1.1h-5.9l0.9,5.8h5.7c3,0,5.5-1,7.5-3.1c2-2.1,3-4.4,3-6.9V320.4z M151.6,313.9c-1.6,0-2.7-0.1-3.2-0.3
		c-0.5-0.3-0.8-0.8-0.8-1.4c0-1,0.7-1.5,2.1-1.5c0.9,0,1.8,0.3,2.5,0.9c0.7,0.6,1.1,1.4,1.1,2.3H151.6z M158.6,314.6
		c0-3-0.8-5.2-2.4-6.8c-1.6-1.5-3.4-2.3-5.6-2.3c-2,0-3.8,0.6-5.3,1.9s-2.2,3-2.2,5.1c0,3,0.9,4.9,2.6,5.6c1.7,0.7,4,1.1,7,1.1
		c-0.2,0.4-0.5,0.7-1,0.7h-11.3v5.8h10.3c2.7,0,4.7-0.7,6.1-2.2s2-3.3,2-5.6L158.6,314.6z M152.8,298c-0.7-0.6-1.5-0.9-2.5-0.9
		c-0.5,0-1,0.1-1.5,0.2c-0.4,0.2-0.8,0.4-1.2,0.7c-0.6,0.6-1,1.3-1,2.2c0,0.9,0.3,1.7,1,2.4c0.7,0.6,1.6,1,2.6,1
		c0.5,0,0.9-0.1,1.3-0.3c0.4-0.2,0.8-0.4,1.1-0.7c0.7-0.7,1.1-1.5,1.1-2.4C153.9,299.2,153.5,298.5,152.8,298 M131.5,319.7
		c-0.5-0.1-0.9-0.2-1.2-0.4c-0.5-0.5-0.8-1.2-0.8-2.1c0-1,0.1-1.8,0.4-2.3c0.4-0.4,0.9-0.6,1.4-0.6c0.6,0.1,1.1,0.3,1.5,0.5
		c0.4,0.3,0.6,1,0.6,2v2.9C132.7,319.9,132.1,319.8,131.5,319.7 M141.8,319.9h-2.5c0-4.3-0.7-7.3-2.2-8.9c-1.5-1.6-3.4-2.4-5.8-2.4
		c-2.3,0-4.1,0.6-5.5,1.7c-1.4,1.1-2.1,3.6-2.1,7.3c0,3.1,0.9,5.3,2.7,6.4c1.8,1.1,4.1,1.7,6.9,1.7c-0.1,0.5-0.4,1-0.7,1.4
		c-0.3,0.4-0.7,0.8-1.1,1.2c-0.9,0.7-2.1,1.1-3.5,1.1H122l0.9,5.8h5.7c2.9,0,5.4-1,7.4-3c2.1-2,3.1-4.2,3.1-6.6
		c0.4,0.1,1.1,0.2,2.1,0.2h0.6V319.9z M119.3,299.6h-5.8v17.6c0,0.5,0,1-0.1,1.4c0,0.4-0.1,0.6-0.1,0.7c-0.2,0.4-0.7,0.5-1.3,0.5
		h-3.2c-0.6,0-1,0-1.4-0.1c-0.4-0.1-0.6-0.1-0.8-0.3c-0.1-0.2-0.2-0.4-0.3-0.8c-0.1-0.3-0.1-0.9-0.1-1.5v-17.6h-5.8v19.2
		c0,1.7,0.5,3.2,1.6,4.7c1.1,1.4,3.3,2.1,6.7,2.1h3.4c2.6,0,4.4-0.7,5.5-2.2c1-1.5,1.5-3,1.5-4.6V299.6z M97.5,318.5l-0.3-1.3
		c-0.3-0.6-0.5-1-0.7-1.3c-0.3-0.4-0.6-0.8-0.9-1.1l-1.2-1.3l-7.9-8.3l-4,4l9.1,9.6l0.1,0.4c0,0.4-0.4,0.7-0.9,0.7H77.7l0.9,5.8H91
		c2,0,3.6-0.6,4.8-1.8c1.2-1.2,1.8-2.5,1.8-4.1C97.6,319.3,97.6,318.9,97.5,318.5"/>
</g>
</svg>
